<svg xmlns="http://www.w3.org/2000/svg" viewBox="0 0 1496 1000" preserveAspectRatio="xMidYMid slice"><rect width="1496" height="1000" fill="#dce5f0"/><g fill="#eef3fc" stroke="rgba(15, 23, 42, 0.12)" stroke-width="1" stroke-linejoin="round"><path d="M1465.4 -833.7L1455.3 -828.7L1452.2 -807.5L1459 -769.3L1454.6 -747.2L1466.7 -722L1467.8 -690.7L1464.6 -676.1L1456.5 -673.8L1462.7 -656.6L1457.5 -648.7L1463.7 -636L1481.8 -620.9L1489.3 -597.8L1468.5 -586.9L1439.8 -585L1428 -570.8L1429.9 -555.6L1445.5 -532.2L1447 -516.9L1439.3 -514.4L1451.9 -489.6L1452.5 -477.3L1447.6 -461.5L1447.9 -438.3L1454.6 -429.5L1451.3 -408.2L1462 -390.2L1451.2 -387.5L1452.6 -379.9L1435.7 -373.7L1435.8 -361.8L1424.7 -349.1L1413 -323L1413.3 -287.2L1407 -275.2L1392 -262.3L1373.1 -263.2L1362.9 -280.1L1352.2 -281L1333.2 -272.9L1334.6 -263.1L1296.3 -269.2L1298.7 -253.4L1280.7 -239.2L1239.9 -240.3L1241.5 -231.2L1221.8 -233.1L1217.2 -242.3L1209.9 -230.6L1209.2 -213.1L1193.5 -211.2L1166.3 -198L1163.2 -160.3L1149.2 -161L1151.2 -169.3L1138.5 -169.4L1138.2 -183L1130.5 -175L1111.3 -171.5L1098.7 -150.3L1104.2 -134.9L1095.8 -121.9L1087.2 -95.1L1034.4 -73.4L1006.6 -54.6L1006.6 -59.2L989.5 -64.5L988.6 -54.9L975 -58.6L972.8 -52.6L977.7 -44.1L975.3 -26.8L979.8 -6.8L994.7 25.1L1005.6 39.7L1007.3 63.4L1039.3 73.6L1057.3 48.6L1071.8 66.8L1080.3 92.7L1100.4 115.2L1117.4 127.6L1135.5 150.7L1140.5 170.5L1168.4 190L1181.8 191L1186.6 198.8L1181.1 210.7L1187.1 221.5L1220.3 240.3L1236.8 254.6L1255.7 253.7L1280.2 272.8L1291.8 276.9L1303.1 289L1314.9 281.2L1348.6 295.6L1364.8 321.6L1373.5 324.8L1415.2 305.1L1423.7 304.8L1438.4 312.7L1447.8 311.4L1466.7 296.7L1484.1 292.9L1503.1 301.8L1515.7 300.1L1537.4 282L1550.5 265L1578.5 254.8L1596.8 257.6L1622.9 248.5L1631.4 236.3L1653.8 254.1L1669.2 258.1L1659.3 248.8L1656 234.1L1662.7 232L1666.7 217.4L1676.6 202.3L1698.9 223.4L1736.4 246.9L1742.7 258L1759.3 268.7L1778.7 307.5L1826.7 319.4L1843.6 331.6L1852.7 345.8L1860.1 369L1873.6 385.5L1936.6 431.4L1962.8 433.2L1967.9 428.1L1960 426.2L1945.1 411.5L1906.2 352.7L1844.7 241.8L1838 237.2L1818.7 251.4L1819.7 263.1L1830.3 282.1L1826.7 284.4L1816.3 267.5L1815.3 251.2L1798.9 233.3L1818.2 244.1L1832.7 233.9L1838.8 224.4L1825 196.3L1809.6 182.1L1755.7 56L1730.6 -26.6L1721.1 -75.4L1716.7 -130.4L1719.3 -151.6L1739.8 -170.2L1747.2 -181.9L1751.3 -199.9L1761 -215.8L1770.5 -222.3L1774.5 -246.1L1768.3 -248.5L1760.7 -270.7L1763.2 -284L1774.7 -284.1L1774.7 -291.5L1761 -298.4L1775.7 -298.3L1775.8 -309.2L1761.7 -310.8L1759.6 -320.4L1764.8 -354L1771.6 -354L1797.6 -449.1L1804.7 -455.7L1807.6 -468.6L1821 -493.9L1828.9 -500.2L1831.1 -521.2L1850.8 -546.9L1851.7 -575.9L1862.9 -601.1L1863.4 -626L1877.7 -670.3L1896.5 -710.8L1911.6 -722.7L1920.8 -719.5L1928.3 -724.5L1921 -736.9L1917.8 -754.5L1903.9 -763.2L1896 -757L1872.6 -771.9L1867.2 -767.7L1850 -769L1833.7 -786.1L1765 -802.9L1740.5 -846.5L1724.6 -837.3L1727.3 -831.3L1722.8 -811.5L1736 -802.8L1734.8 -793.9L1746.7 -776.5L1735.8 -762.7L1699.4 -754L1691 -743.1L1691.3 -733.9L1683.3 -729.8L1681.2 -719.6L1669.5 -711.5L1657.5 -711.2L1657.7 -701.2L1648.7 -687.9L1638.4 -682.5L1614.2 -714.2L1608 -709.4L1593 -725.5L1562 -731.7L1554.6 -762.9L1557.9 -767.3L1551.7 -781.3L1530.9 -783.4L1516.6 -790.9L1514.7 -806.4L1498.6 -826.8L1484 -835.9L1472.9 -830.3L1465.4 -833.7Z"/><path d="M582.9 -841.4L588 -847.6L580.2 -863.5L560.3 -857.9L541.2 -863.8L534.5 -876.8L538.1 -895.2L530.9 -907.2L512.6 -916L508.9 -925.3L497.4 -932.6L489.8 -955.5L467.6 -967.8L462 -953.2L462.6 -926.4L453.5 -914.3L447.6 -914.2L427.5 -899.6L425.5 -891.9L410.6 -887.6L397.9 -892.5L385.2 -882.8L358.9 -885.1L356 -882.4L353.7 -854.5L356.3 -831L365.2 -817.5L366.9 -788.6L360.2 -784.4L345.1 -792.9L327.8 -791.7L313.9 -766.4L318.1 -756.4L313.8 -743.5L319.8 -741.6L324.1 -726.1L281.7 -717.9L278.3 -711.1L257.3 -704L247.5 -709.5L232.3 -710L238.5 -682.3L236.7 -661.6L228.9 -650.2L222.6 -653.9L209.7 -646.5L204.7 -632.3L188.4 -633.7L151.3 -652.9L139.4 -626.3L124.7 -625.6L61.4 -606L52.3 -591.5L37.9 -599.2L28.4 -585.9L21.3 -592.1L-5.4 -588.6L-30.6 -574L-27.4 -560L-13.4 -548.5L-21.4 -532.1L-51.2 -521.8L-65.7 -524.8L-77.7 -515L-81.2 -492.7L-92.7 -489.3L-92.8 -477.9L-103.6 -475.7L-110.8 -449.9L-103.9 -444.6L-103.6 -431.3L-118.5 -413.4L-116.3 -406.2L-124.6 -394.9L-123.1 -379.3L-130.7 -361.4L-125.4 -320.7L-127 -301.3L-79.4 -286.5L-77.2 -270.2L-52.2 -266.1L-49.5 -279.2L-38.1 -280.9L-17.7 -268.4L-8 -268.2L4.3 -284L34.4 -290.5L49.5 -289.8L60.9 -282.7L74.5 -283.5L82.6 -276.6L87.2 -261.1L85.2 -242.8L91.6 -232.1L85.6 -214.7L88.3 -184.9L83.7 -174.4L88.5 -162.3L81.1 -152.1L53.3 -143.7L43 -136.1L47.8 -123.8L44.6 -105.4L53.4 -96.3L52.9 -84.1L61.8 -68.4L69.6 -71.3L72.5 -58.9L62.2 -49.7L74.5 -26.4L46.9 -15L26.8 -29.1L25.9 -13.1L37 -3.3L43.4 15.3L61.7 19.1L71.9 17L82.4 42.8L81.4 54.2L68.9 62.1L79.3 86L80.5 106.3L69.7 128.8L95.5 146L110.9 146.4L120.4 168.4L139 174.2L142.6 166.2L155.7 160.5L170.3 141L174.7 122.2L187.3 117.7L206 127.6L238.1 119.1L250.3 99.7L253.1 88.2L268.7 77.2L297.4 62.8L313.1 59.5L326.1 65.5L347.5 46.9L349.2 27.4L358.8 27.1L372.5 36.5L388.8 17.6L398 16.9L416.2 25.2L420.9 22.8L421.2 2.1L436.5 -2.4L432.9 -32.3L439.8 -39.4L438.8 -48.4L454.6 -68.7L495.3 -141.3L499.6 -136.5L524.8 -136.6L565.6 -112.8L576.2 -114.8L587.7 -101.9L612.9 -98.1L612.8 -106.4L649.1 -92.6L665.1 -92.6L681.6 -109.8L690.9 -109.5L706.7 -100.1L721 -82.2L742.9 -70.4L773.1 -43.9L842.2 -45.5L887.1 -64L900.8 -56.6L918.9 -38.7L920.2 -45.8L941.6 -51.2L939.8 -64.8L948.9 -68.8L952.7 -60.4L957.1 -69L940.8 -94.4L933.8 -96.8L923.9 -111.1L926.6 -127.4L914.5 -131.8L905 -125.2L864.5 -124.1L853.7 -138.6L849.8 -133.3L834 -142.8L795.8 -128.6L781.2 -128.8L785.2 -136.9L775.4 -147.5L763.9 -146.6L752.6 -154.4L753.6 -160.1L740 -175.8L749.5 -187.6L742 -197.8L719.4 -211.5L699.8 -230.5L693.3 -249.5L705.7 -265.5L706.8 -276.9L737.2 -319L733.7 -326.7L744.1 -325.8L757.8 -335.3L750.6 -361.3L742 -365.8L745.2 -380.8L750.3 -382.8L763.3 -405.1L756.4 -406.3L760 -425.4L778.6 -428.1L797.7 -459.9L789.8 -467.7L786.5 -482.3L765.1 -485.7L749.6 -479.1L737.2 -486.6L725.5 -480.2L715.3 -490.7L685.8 -494L680.2 -505.5L666.5 -507.3L664 -538.8L674.7 -561.4L672.7 -576.1L682.8 -584.3L698.4 -610.7L702.7 -634.4L689.1 -638.3L684.6 -652.2L686.8 -663.6L704.7 -674.4L707.8 -696L716.9 -696.8L719 -706.6L732.4 -720L698 -736.1L682.7 -747.6L688.7 -753.6L690 -773.4L699.2 -773.7L701.2 -785.3L709 -795.9L721.4 -801.6L720.9 -809.6L703.7 -817.7L686.3 -814.9L677.4 -827.5L645.5 -825.7L636.7 -834.9L625.5 -831.4L611.1 -841.8L604.1 -833.8L590.3 -829.6L582.9 -841.4Z"/><path d="M972.8 -52.6L961.3 -62.4L952.7 -60.4L948.9 -68.8L939.8 -64.8L941.6 -51.2L920.2 -45.8L918.9 -38.7L900.8 -56.6L887.1 -64L842.2 -45.5L773.1 -43.9L742.9 -70.4L721 -82.2L706.7 -100.1L690.9 -109.5L681.6 -109.8L665.1 -92.6L649.1 -92.6L612.8 -106.4L612.9 -98.1L587.7 -101.9L576.2 -114.8L565.6 -112.8L524.8 -136.6L499.6 -136.5L495.3 -141.3L454.6 -68.7L438.8 -48.4L439.8 -39.4L432.9 -32.3L436.5 -2.4L421.2 2.1L420.9 22.8L416.2 25.2L398 16.9L388.8 17.6L372.5 36.5L358.8 27.1L349.2 27.4L347.5 46.9L326.1 65.5L313.1 59.5L297.4 62.8L268.7 77.2L253.1 88.2L250.3 99.7L238.1 119.1L206 127.6L187.3 117.7L174.7 122.2L170.3 141L155.7 160.5L142.6 166.2L138 189L161.8 223L161.1 233.7L153 254.6L170.2 262.6L194.2 263.9L204.4 271.5L206.7 289.7L220.9 296L225.3 304L241.4 304.2L252.6 298.7L262.1 301.7L292.4 327.8L308.6 314.2L321.8 318.2L336.8 312L335.8 306.4L345.8 290.8L366.7 280.1L372.1 284.2L385.3 281.2L393.5 267.3L404.8 267.1L427.3 286.7L446.3 294.3L455.2 290.8L463 297L483.9 301.8L500.4 300.8L549.2 327.3L566.5 320.7L583.5 331.2L607.4 331.8L617.1 328L642.9 333.7L645.2 346.2L653.9 343.2L655.5 356.4L663.1 374.9L669.2 378.4L681.1 373.6L700.9 378.5L698.8 386.3L709.7 392.2L709.7 405.3L719.9 408.5L730.8 402.3L765.1 405L787.5 397.8L794.6 391L809.4 392.3L837.1 376L847.8 362.1L852.5 367L844.2 379.5L848.9 391.1L831.8 399.4L826.2 406.2L853 397.2L850.4 417.6L859.3 416.5L888 392.4L901.3 396.1L896.4 402.4L917.3 404.7L918.6 390L932.3 372.2L943.2 369.6L979.8 370.6L991 378.2L1012 380.3L1015.6 390.7L1030.1 383.6L1035 372.5L1027.5 358.3L1044.4 352L1050.8 361.1L1063.4 364.3L1089.9 357.3L1086.1 372.4L1090.8 376.8L1101.1 369L1116.9 379.3L1129.1 372.6L1134.6 389.7L1148.7 388L1144.2 373.6L1146.8 349.4L1143.8 344.2L1145.5 323.4L1154.3 302.1L1145.4 272.2L1120.6 230L1108.3 221L1100.9 207.4L1091.4 176.5L1080.8 161.8L1083 156.2L1080.2 118L1061.2 97.2L1048.2 62.7L1039.3 73.6L1007.3 63.4L1005.6 39.7L994.7 25.1L979.8 -6.8L975.3 -26.8L977.7 -44.1L972.8 -52.6Z"/><path d="M1048.2 62.7L1061.2 97.2L1080.2 118L1083 156.2L1080.8 161.8L1091.4 176.5L1100.9 207.4L1108.3 221L1120.6 230L1145.4 272.2L1154.3 302.1L1145.5 323.4L1143.8 344.2L1146.8 349.4L1144.2 373.6L1148.7 388L1136.5 404L1139.7 413.4L1153.6 428.4L1152.9 450.5L1167.9 466.7L1170.1 477.6L1161.5 490.4L1142.5 497.7L1143.3 521.3L1139.9 532.9L1129.7 539.8L1130.6 553.6L1152 562.9L1187.8 537.8L1169.6 522.2L1179.6 507.3L1194 495.2L1199.4 504.9L1208.4 494.3L1224.8 494.5L1232.7 504.3L1227.5 513.2L1241.1 511.3L1242.1 517.5L1228 517.2L1228.8 523.1L1251.2 519.9L1311.3 583.8L1306.2 569.4L1310.6 566.4L1319.3 576.5L1315.6 586.1L1326.4 586.8L1332.6 580.5L1338.8 612.8L1322.3 615.7L1317.5 621.2L1337.9 630L1323.4 627.7L1312.9 634.1L1325.9 645.1L1321.7 648.3L1302.7 633L1292 639.6L1249.9 701L1257.9 720.4L1245.1 707.2L1230.2 717.1L1224.2 712L1210.3 718.5L1217.7 739.6L1207.2 728.9L1197.8 731.6L1195.7 746.2L1172.8 749.3L1156.9 757.4L1151.9 777.6L1159.8 801.9L1169.5 801.8L1169.4 809.7L1143.6 821L1152.3 834.1L1122.5 825L1107.8 816.3L1102 824.8L1118.3 843.5L1108.8 846.2L1100.9 833.5L1088.2 848.7L1102.6 859.7L1082.7 870.1L1085.4 878L1056.5 881.3L1104.7 901.4L1113.7 911.1L1108.6 924.9L1123.6 943.3L1128.8 970.5L1125.6 979.7L1094 996.6L1082.8 1015.4L1082.9 1047.4L1092.4 1050.6L1101.9 1073.8L1089.9 1090.2L1088.8 1103.7L1100.7 1106.2L1104.7 1116.8L1101.4 1126.7L1086.6 1134.3L1096.7 1159.7L1088.3 1169.9L1115.1 1188.1L1117.5 1215.3L1111 1224.3L1103.9 1217.5L1089.1 1217.8L1088.1 1229.8L1065.9 1236.4L1030.4 1231.7L1028.8 1245.2L1043.9 1256.5L1051.2 1254.8L1082.2 1270.6L1092 1284.9L1089.3 1301.7L1102.2 1308.6L1159.9 1308.8L1189.8 1295.1L1190.2 1288.9L1205.9 1274.2L1210.3 1259.5L1206 1247.6L1221.4 1200.3L1239.2 1178.7L1286.7 1147.3L1303.9 1148.9L1306.5 1138.7L1327.3 1127.1L1324.9 1115.6L1331.7 1111.5L1329.4 1102.5L1343.7 1087.8L1354.5 1081.9L1369.2 1086.8L1376.5 1080.3L1391.9 1082.1L1405.5 1077.4L1413.1 1094L1427.7 1087.2L1438.3 1088.8L1452.8 1067.9L1470.8 1065L1474.8 1072.6L1484.4 1068.6L1493.6 1051.8L1505.6 1054L1509.2 1064.1L1518.1 1063.9L1518.7 1053L1526 1034.8L1538 1020.8L1562 1019.8L1576.2 997.8L1574.8 988.9L1585.6 961L1587.5 947.2L1581.5 927.3L1594.3 889.4L1592.9 880.4L1577.4 858.8L1573.7 820L1577.3 776.8L1592.5 721.6L1622.1 662.3L1663.1 605.4L1690.1 576.7L1768 507.9L1790.2 492.7L1831.8 475.2L1855 476.3L1863.2 488.6L1939.6 460.9L1955.9 463.7L1962 477L1979.4 480.7L1983.9 440.1L1979.4 431.7L1967.9 428.1L1962.8 433.2L1936.6 431.4L1873.6 385.5L1860.1 369L1852.7 345.8L1843.6 331.6L1826.7 319.4L1778.7 307.5L1759.3 268.7L1742.7 258L1736.4 246.9L1698.9 223.4L1676.6 202.3L1666.7 217.4L1662.7 232L1656 234.1L1659.3 248.8L1669.2 258.1L1653.8 254.1L1631.4 236.3L1622.9 248.5L1596.8 257.6L1578.5 254.8L1550.5 265L1537.4 282L1515.7 300.1L1503.1 301.8L1484.1 292.9L1466.7 296.7L1447.8 311.4L1438.4 312.7L1423.7 304.8L1415.2 305.1L1373.5 324.8L1364.8 321.6L1348.6 295.6L1314.9 281.2L1303.1 289L1291.8 276.9L1280.2 272.8L1255.7 253.7L1236.8 254.6L1220.3 240.3L1187.1 221.5L1181.1 210.7L1186.6 198.8L1181.8 191L1168.4 190L1140.5 170.5L1135.5 150.7L1117.4 127.6L1100.4 115.2L1080.3 92.7L1071.8 66.8L1057.3 48.6L1048.2 62.7ZM1310.6 592.8L1313.1 612.5L1335.1 611.5L1327.6 593.7L1310.6 592.8ZM1211.1 497.2L1204.1 504.9L1222 506.9L1220.4 496.8L1211.1 497.2Z"/><path d="M336.8 312L339.7 324.1L352.4 338.6L358.4 336.7L359.3 365L364.9 381.4L373.1 388.5L371.3 403.8L378.2 416.7L389.1 422L403.9 452L446.3 480L475 484.6L497 504.7L510.5 510.1L522.8 509L527.5 526.7L537.8 532.5L554 524.7L569.1 532.5L573 553.5L588.7 573.1L600.3 578.6L626.5 566.4L649.2 576L658.7 573.5L694 581.2L726.5 596.8L740.1 619.9L776.4 656L784.6 683.1L799.2 681.2L792.4 673.7L799.9 662L800.8 648.1L795.3 640.2L796.7 627L785 619L793.1 599.1L803.5 597.7L798.2 609.9L802.9 620.5L817.7 610.1L805.1 592.4L781.2 570.8L772.4 575.7L768.8 568L779.8 554.2L791.8 560.5L803.2 575.9L812.1 572.7L807.7 562.1L825.9 553.4L833.8 535.5L861.2 544.6L868.2 551.8L890.7 561.8L908 563.7L956.9 596.5L962.9 616.1L985.7 629.5L983 645.2L1031.4 638.7L1048.5 649.3L1053.1 644.7L1064.2 651.7L1076.2 645.1L1056.1 611.4L1043.8 613L1037.6 622L1023.2 588.6L1028.1 544.2L1034.7 541.7L1035.5 525.2L1040.5 519.3L1045.3 532L1058.8 521.3L1062.1 524.7L1048.2 535.8L1057.7 551.7L1067.3 557.4L1069.7 542.2L1075.5 537.8L1098 534L1129.7 539.8L1139.9 532.9L1143.3 521.3L1142.5 497.7L1161.5 490.4L1170.1 477.6L1167.9 466.7L1152.9 450.5L1153.6 428.4L1139.7 413.4L1136.5 404L1148.7 388L1134.6 389.7L1129.1 372.6L1116.9 379.3L1101.1 369L1090.8 376.8L1086.1 372.4L1089.9 357.3L1063.4 364.3L1050.8 361.1L1044.4 352L1027.5 358.3L1035 372.5L1030.1 383.6L1015.6 390.7L1012 380.3L991 378.2L979.8 370.6L932.3 372.2L918.6 390L917.3 404.7L896.4 402.4L901.3 396.1L888 392.4L859.3 416.5L850.4 417.6L853 397.2L826.2 406.2L831.8 399.4L848.9 391.1L844.2 379.5L852.5 367L847.8 362.1L837.1 376L809.4 392.3L794.6 391L787.5 397.8L765.1 405L730.8 402.3L719.9 408.5L709.7 405.3L709.7 392.2L698.8 386.3L700.9 378.5L681.1 373.6L669.2 378.4L663.1 374.9L655.5 356.4L653.9 343.2L645.2 346.2L642.9 333.7L617.1 328L607.4 331.8L583.5 331.2L566.5 320.7L549.2 327.3L500.4 300.8L483.9 301.8L463 297L455.2 290.8L446.3 294.3L427.3 286.7L404.8 267.1L393.5 267.3L385.3 281.2L372.1 284.2L366.7 280.1L345.8 290.8L335.8 306.4L336.8 312ZM693.4 1418.5L683.5 1435.7L683.1 1460.2L689.8 1478L686.2 1502.5L692.5 1509.7L691.7 1519.5L710.1 1525.9L723 1538.3L759.7 1543.8L769.4 1525.2L764 1518.5L768.5 1507.9L757.9 1451L737.5 1432.1L693.4 1418.5ZM1034.4 3109.8L1021.7 3113.9L1016.1 3123.3L1017.1 3137.9L1027 3154.5L1029 3165L1047.7 3170.1L1051.9 3195.7L1065 3208.1L1085.1 3212.4L1096.3 3225.9L1097.5 3203.1L1101.9 3195.5L1118.7 3191.1L1117.7 3170.9L1107.5 3153.1L1083.1 3149.4L1080.7 3141.3L1066.8 3135.6L1064.3 3127L1044.1 3110.5L1034.4 3109.8ZM839.8 2118L806 2123.1L806.9 2137.7L789.9 2165.8L796.6 2176.9L796.3 2193L813.6 2199.3L822.5 2196.3L837 2198.6L841.6 2191.8L855.5 2186.3L865.7 2173.8L867.9 2149.8L865 2134.6L845.7 2118.8L839.8 2118ZM2373.4 11278.8L2361.3 11281.3L2342.3 11296.9L2338 11305.1L2344 11317.5L2337.8 11336.5L2338.7 11343.3L2347.8 11336L2390 11317.5L2393.8 11305.2L2382.6 11283.8L2373.4 11278.8ZM3114.5 9099.1L3104.6 9104.5L3108.8 9116.2L3122.6 9106L3121.9 9116.8L3127.4 9120.2L3122.9 9130.6L3109.3 9131.9L3115.8 9140.3L3109.4 9142.1L3110.9 9153.9L3136.9 9165.8L3145.3 9166.2L3139.8 9158.5L3148.1 9125.9L3142.4 9123.2L3135.2 9104.8L3114.5 9099.1ZM623.4 1800.5L621 1816.7L603.2 1832.1L600.5 1857.5L591.6 1870.1L593.7 1886.4L600.6 1895.9L617.1 1904.7L620.9 1887.1L622.2 1843.1L633.8 1824.6L633.1 1808L623.4 1800.5ZM900.3 2348.6L889.8 2351.7L877.7 2371.9L879.8 2390.4L889.7 2396.1L914.7 2399.3L924.9 2380.4L913.3 2357.6L900.3 2348.6ZM3057 9474.5L3054.6 9482.7L3061 9498.6L3073 9510.9L3070.9 9520.8L3081 9549.5L3094.2 9553L3105 9572.4L3103.2 9553.7L3095.6 9542.3L3099.4 9531.2L3089.8 9526.2L3087.4 9514.1L3093.4 9497.9L3074.8 9502.5L3074.2 9494.1L3090.3 9485.7L3069.7 9480.1L3071.1 9490.1L3063.9 9488.6L3057 9474.5ZM507.2 1994.8L501.9 1997.4L497.2 2038.8L489 2040.8L486.7 2050.3L495.8 2055.8L509.8 2051.5L518.4 2035.3L528.7 2031.2L534.5 2035.5L530.3 2007.9L507.2 1994.8ZM1030.1 561.8L1024.5 588.9L1029.3 603.2L1054 604.5L1030.1 561.8ZM3113.1 9062.2L3111.6 9084.8L3125.6 9087.4L3120.9 9095.2L3149.2 9095.9L3142.9 9081.5L3134.3 9073.4L3124.6 9077.3L3113.1 9062.2ZM1033.5 3807.2L1030.4 3809.1L1029.8 3829.6L1040 3837.6L1052.1 3831.8L1052.1 3823.8L1041.6 3810.9L1033.5 3807.2ZM2337.3 10679.3L2328.4 10686.1L2330.5 10707.1L2345.1 10701.2L2344.5 10688.3L2337.3 10679.3ZM1091.7 583.6L1085.9 572.6L1063 588L1080.1 602.8L1096.1 592L1091.7 583.6ZM3111 9018.1L3106.7 9020.8L3108.6 9052.2L3103.7 9060L3110.7 9061.8L3119.6 9048.4L3121.8 9037.8L3116.1 9034.2L3120.3 9025.1L3111 9018.1ZM1499.4 5790.5L1489.2 5793.9L1484.4 5802.6L1494.4 5813.1L1503.6 5811.4L1508.3 5799.2L1499.4 5790.5ZM620.3 1696.3L613.3 1707.4L617.5 1716.5L625.5 1716.7L635 1704.6L620.3 1696.3ZM566.7 1898.4L550.5 1915.6L567.1 1919.9L578.7 1909.5L566.7 1898.4ZM2489.5 11813.6L2483.4 11816.6L2481.9 11828.5L2495.2 11830.4L2498.1 11816.6L2489.5 11813.6ZM1048.6 542.4L1040.9 553.3L1057.2 578.5L1062.3 570.3L1052.3 555.3L1048.6 542.4ZM971 3132.6L962.1 3138.6L969.3 3151.1L983.2 3153.2L982.2 3145L971 3132.6ZM1987.6 8956.6L1982.8 8965.9L1995.6 8972.8L2000.4 8964.5L1987.6 8956.6ZM3061.5 8537.7L3068.6 8553.7L3076.5 8552.5L3075.9 8542.6L3061.5 8537.7ZM1083.3 570.2L1077.6 566.5L1067.3 573L1061.9 586.4L1083.3 570.2ZM1102.9 546.7L1090.7 548.1L1092 559.6L1101.6 565.5L1102.9 546.7ZM13193.8 11764.4L13182.8 11776.5L13196.2 11777.9L13193.8 11764.4ZM3081.8 9617.8L3078.8 9619.9L3081.2 9637.6L3086.9 9633.3L3086.7 9620.8L3081.8 9617.8ZM3061.3 9573.7L3054.1 9579.8L3059.5 9588.6L3065.5 9582.5L3061.3 9573.7ZM3098.9 8588.7L3097.7 8600.2L3107.8 8604.5L3108.2 8598.1L3098.9 8588.7ZM3131 9617.8L3121.6 9625.4L3131.7 9626.4L3131 9617.8ZM1038 606.7L1039.2 617.3L1045.9 606.8L1038 606.7ZM1082.8 650.6L1085.5 641L1074.6 652.8L1082.8 650.6ZM3146.4 9607.1L3143.2 9618.5L3154.4 9614.9L3146.4 9607.1ZM1032.7 544.8L1028.6 560.4L1034.2 560L1032.7 544.8ZM3130 8717.6L3124 8722.5L3134 8728.3L3130 8717.6Z"/><path d="M497 504.7L484.9 522.6L492.6 534.8L490.2 555.1L499.6 562.9L495.2 586.1L488.5 594.2L493.9 600.4L494.5 619.7L480.4 633.2L482.1 645.1L458 672.8L436 677.6L424 675.3L422.2 686.1L408.2 705.5L391.6 712.2L375.1 713.2L366.5 723.6L345.8 727.7L326.6 745.5L321.1 774.4L313.2 789.8L379.2 786.8L386.2 791.6L383.5 807.2L389.7 816.3L393.9 855.3L400.9 864.6L387.3 906.4L372.7 918L363.7 933.3L362.9 949.9L374.3 986.8L374.2 999.1L393.8 1018.2L403.2 1018.9L409.6 1031.1L410.7 1052.6L426.2 1052.7L461.7 1062.6L480.1 1061.3L489.6 1052L499.9 1051.7L513.5 1062.1L523 1061.1L508.9 1049.2L508.8 1034.2L501.2 1020.3L508 964.5L531 943.5L562.4 919.1L598.2 902.8L673.9 881.1L754.6 875.1L785.4 879.6L796.2 890.2L803.7 887.3L834.2 893.6L841.5 886.3L856.7 892.3L856.7 901L872.9 902.4L872.8 926.4L881 943.7L897.5 959.3L901.7 975.9L915.4 977.5L918.1 991.4L905.4 990L897.4 1006.7L911.5 1010.8L914.8 1027.7L906.8 1038.2L914.4 1043.3L903.6 1047.8L912.4 1054.8L904.3 1059.8L921.1 1065.6L952.8 1063.2L954.3 1055.9L963.4 1063.4L967.2 1051.1L963.4 1044L951.8 1042.5L944.6 1020.1L955 1004.6L976.8 990.2L1004.4 987.5L996.1 981.5L995.7 972.2L1007.7 975.2L1000.3 957.8L1011.5 957.3L1013 949.1L1023.2 944L1009.6 933.4L975.4 930.3L959 907.5L966.9 906.7L961 894.8L950.6 894.5L949.6 913.2L930.9 894.6L949.5 865.8L932.4 863.5L927 872.3L923.1 864.3L930.9 852.6L946.1 851.6L941.2 832.6L945.9 819.1L936.8 813.4L943.1 803.7L918.6 799.2L919.8 788.7L936.4 787.5L926.4 781.7L942.5 776.8L957.1 787.4L967.1 774.8L962.4 766.1L970.6 762.5L975.1 749.3L957.7 736.6L952.4 745.5L946.6 739.1L935.7 739.6L930.1 730.2L935.8 710.7L956.7 709.1L956 719.2L967.5 708.2L1024.8 678.3L1022.8 669.1L1015.5 670L1035.2 653.7L1043.8 671.6L1060.7 677.2L1065.2 665.9L1046.7 651.6L1048.5 649.3L1031.4 638.7L983 645.2L985.7 629.5L962.9 616.1L956.9 596.5L908 563.7L890.7 561.8L868.2 551.8L861.2 544.6L833.8 535.5L825.9 553.4L807.7 562.1L812.1 572.7L803.2 575.9L791.8 560.5L779.8 554.2L768.8 568L772.4 575.7L781.2 570.8L805.1 592.4L817.7 610.1L802.9 620.5L798.2 609.9L803.5 597.7L793.1 599.1L785 619L796.7 627L795.3 640.2L800.8 648.1L799.9 662L792.4 673.7L799.2 681.2L784.6 683.1L776.4 656L740.1 619.9L726.5 596.8L694 581.2L658.7 573.5L649.2 576L626.5 566.4L600.3 578.6L588.7 573.1L573 553.5L569.1 532.5L554 524.7L537.8 532.5L527.5 526.7L522.8 509L510.5 510.1L497 504.7ZM1013.5 691.6L985 705.9L994 723L1018.9 709.6L1013.5 691.6ZM1044 679L1035.4 679.5L1014.1 691.3L1022.1 701.2L1050.3 686L1044 679ZM978.6 722L976.6 714.9L959.7 722L960.1 726.8L979.2 738.2L985 732.6L978.6 722ZM976 779.5L966.2 779.8L958.4 787.4L968 797.6L979 782.5L976 779.5ZM1034.1 659.2L1024.9 664.5L1027.3 675.5L1039.5 671.2L1034.1 659.2ZM941.9 887.5L935 894.9L939 900.7L946.1 893.6L941.9 887.5ZM906 1065L905.9 1069.8L920.8 1069.1L906 1065ZM936.7 712.1L942.8 723.7L945.4 716.8L936.7 712.1Z"/><path d="M153 254.6L135 254.1L116.1 270.8L107.9 296.2L90.6 289.8L72 295.9L51.9 292.1L47.9 272.9L53.1 254.4L44.9 253.9L35.2 243.5L22.8 252.2L3.3 244.3L-17.6 249L-33.6 240.7L-47.3 252.5L-51.5 268.1L-67 268.3L-76.5 260.6L-80.9 264.6L-90.3 245.6L-81.8 223.9L-91.3 210.3L-153.5 188.9L-160.8 198.2L-162.4 210.5L-175.2 220.7L-177.8 237.2L-191.2 261L-227.7 307.2L-257.7 279.2L-271.3 289.5L-276.3 309.3L-296.3 345.3L-294.3 353.2L-309.6 369.9L-311.9 379.2L-299.5 389.8L-294.6 388.2L-267.8 414.4L-280.3 422L-301.4 446.7L-314.7 455.9L-315.6 463.3L-304.3 479.9L-304.9 504.4L-294.5 512.8L-283.2 533.5L-271.6 538.2L-275 551.8L-268.4 557L-268.7 574L-261.9 589.3L-265.5 594.5L-261.2 618.8L-248.4 629.8L-250.2 653.1L-240.2 670.7L-247.7 679.3L-249.7 710.7L-259.6 723.8L-261.3 733.7L-251.9 743.7L-248.4 757.8L-249.5 782.7L-259.5 790.7L-271.8 820.6L-255.4 828.7L-250.5 854.9L-257.5 862.2L-249.7 878L-239.5 880.2L-226.3 890.8L-216.7 878L-191.6 866.4L-183.5 867.5L-171 879.3L-164.3 876.5L-151.8 895.9L-156.6 905.4L-156.4 926.5L-140.1 951.6L-136.2 979.2L-129.3 999.7L-112.5 1000.7L-104.7 1018.1L-61.6 1022.9L-50 1033.1L-32.2 1011.5L-29.5 1001.8L-18.4 1002.6L-14.6 992.2L-19.3 982.4L-15.1 975.5L-25.1 942L-30.6 934.9L-24.2 912.6L-32.4 881.1L-12.7 863.3L-16.6 847.5L-16.5 815.5L-12.1 801.1L-15.5 780.6L2.5 766.3L7.6 754.6L27.4 742.7L40.4 756L50.6 797.6L96.9 792.3L103.6 798L111.6 834.8L149.4 826.9L154.5 829.5L213.2 814.9L232 817.5L257.2 800.5L267.4 800.8L276.5 809.6L313.2 789.8L321.1 774.4L326.6 745.5L345.8 727.7L366.5 723.6L375.1 713.2L391.6 712.2L408.2 705.5L422.2 686.1L424 675.3L436 677.6L458 672.8L482.1 645.1L480.4 633.2L494.5 619.7L493.9 600.4L488.5 594.2L495.2 586.1L499.6 562.9L490.2 555.1L492.6 534.8L484.9 522.6L497 504.7L475 484.6L446.3 480L403.9 452L389.1 422L378.2 416.7L371.3 403.8L373.1 388.5L364.9 381.4L359.3 365L358.4 336.7L352.4 338.6L339.7 324.1L336.8 312L321.8 318.2L308.6 314.2L292.4 327.8L262.1 301.7L252.6 298.7L241.4 304.2L225.3 304L220.9 296L206.7 289.7L204.4 271.5L194.2 263.9L170.2 262.6L153 254.6Z"/><path d="M124.7 -625.6L118 -654.7L102.2 -663.1L104 -673.7L114.7 -678.3L124.6 -700.9L111.7 -717L119.7 -725.8L122.4 -749.8L108.1 -763L91.8 -763.9L73.1 -780.3L62.8 -781.7L58 -789.4L60.7 -802.4L53.7 -807.2L39.5 -805.7L33.1 -813.2L35.9 -825.2L28.2 -828.4L31.4 -892.1L21.9 -901.4L13.6 -927.8L-11.5 -927.5L-20.6 -937L-49.8 -927L-81.1 -926L-101.4 -911.6L-127.9 -902.8L-146.4 -884.2L-143.4 -879.8L-154.3 -866.5L-158.6 -845.4L-176.8 -820.3L-188.6 -826.8L-198.7 -825L-216.9 -809.6L-222 -794.6L-214.4 -784.3L-223.5 -764.3L-216.9 -753.4L-224.3 -740L-235.2 -734.8L-240.8 -755.8L-253.4 -765.8L-266.5 -759.2L-284.8 -762.3L-303 -748.5L-318.2 -746.5L-331 -738.5L-357.5 -745.3L-374.1 -744.1L-400.5 -723.2L-411.9 -695.3L-425.5 -691.2L-425.8 -699.2L-441.3 -700.6L-445.5 -709.5L-467.2 -719.4L-452.9 -736.5L-458.5 -755.7L-443.1 -774.7L-443.6 -788.8L-456.9 -790.8L-458.5 -802.4L-477.4 -809.5L-496.2 -809.6L-502.4 -800.3L-515.2 -812L-538.8 -819.3L-561.4 -808.7L-577.3 -815L-586.9 -811.8L-580.1 -800.9L-588.4 -788.2L-582.8 -774.3L-574.7 -768.9L-593.3 -744.1L-592.5 -738L-614.6 -710.2L-614.7 -699.8L-624.1 -689.3L-646.9 -677L-648.4 -669L-673.3 -655.1L-682.4 -639L-675.9 -627.8L-683.1 -613.2L-683.8 -589.8L-675.6 -569.5L-673.8 -549.3L-680.9 -539.5L-678.5 -527.9L-682.3 -506.9L-689.1 -491.5L-681.2 -471.2L-685.7 -463.9L-705.2 -463.7L-715.3 -453.5L-731.9 -445L-739.8 -411.7L-717.6 -409.5L-724.3 -397.7L-722 -390.5L-753.3 -381.5L-755.5 -364.3L-762.8 -364.1L-768.7 -350.3L-763.6 -339.8L-765 -327.6L-773.4 -323.1L-783.6 -291.7L-805.1 -285.9L-807.5 -267.9L-822.9 -254.3L-823.2 -235.4L-795.7 -227.1L-781.8 -204.2L-773.3 -203.3L-767.3 -182.1L-766.8 -163.9L-771.2 -147.4L-787.5 -136L-799.5 -121.6L-826.6 -74.6L-835.2 -72.5L-828.3 -48L-816.2 -42.7L-819.6 -15L-839.5 -4L-839.4 1.9L-850.8 10.6L-845.9 20.7L-854.1 42.5L-835.8 65L-814.8 78.5L-800.2 77.9L-800.4 95.7L-813.6 113L-811.9 128.5L-820.4 151.8L-832.9 163.5L-860.4 176.8L-861.6 193L-869.8 199.2L-881.5 222.4L-892.8 221.4L-911.1 247.3L-913 263.8L-918.6 271L-932.9 275.6L-941.5 271.8L-950.9 259L-999.5 272.3L-1011.2 288.8L-1010.8 305.8L-1020 324.7L-1037.8 323.2L-1041.1 326.9L-1047.6 357.1L-1037.6 371L-999.1 368.4L-988.4 372.3L-983.1 395.7L-963 396L-948.7 413.5L-938.3 408.5L-927.7 415.8L-927.1 429.1L-910.2 449.2L-909.5 469.4L-898.7 479.1L-900 487.3L-867.4 511.2L-858.7 526.7L-865 540.1L-873.5 542.6L-878.2 560L-885.8 572L-865.5 596.7L-858.1 593.8L-836.6 597.1L-842.6 613L-828.4 644.6L-805.9 650.3L-785.1 676.1L-791.2 692L-784.4 712.6L-796.5 719.3L-818.1 741L-799 758.1L-793.3 778L-784.7 779.2L-783.3 791.5L-796.4 799.1L-832.1 790L-831 800.8L-823.7 801.4L-813.5 812.3L-809.9 834.2L-810.8 862.8L-820.2 863.3L-826.2 875.1L-836.5 876.1L-849.3 885.7L-849.4 900L-837.1 913L-849.9 922L-848.5 932.4L-858.2 946.1L-852.7 957.8L-830.3 979.7L-831 1001L-819.4 1000.7L-798.9 989L-783.9 987.2L-774 990.6L-763.4 970.4L-754.1 971.4L-731.7 964.7L-707.3 969.6L-706.9 977.3L-689.6 980.3L-675.8 976.9L-667.4 983.3L-668.7 992.8L-640.8 994.1L-622.7 983.6L-608.6 987L-602.7 978L-590.5 975.6L-579.1 980.2L-568.6 962.1L-570.6 949.7L-559.6 939.3L-539.7 943.1L-530.7 921L-517.8 920.1L-511.3 913L-498.8 913.4L-492.9 902.6L-485.3 903.3L-476.9 893.5L-465.3 890.7L-454 894.2L-446.5 883.1L-447.9 874.1L-436.8 868L-438.2 861.2L-426.9 858.1L-422.6 849.1L-410 845.6L-396 855.8L-387.8 853.4L-390 842.9L-371.7 827.3L-349.5 822.5L-339.3 793.4L-354.9 782.3L-350.6 766.7L-366.3 760.5L-365.9 731.3L-357.7 734.5L-349.6 728.6L-336 727.5L-334.8 699.9L-329.4 691.9L-350.3 685.8L-345.1 665.9L-352 662.2L-333.9 638.3L-345.3 625.6L-340.4 610.9L-331.6 600.1L-322.4 599.7L-312.5 608.7L-294 571.6L-296.3 546.5L-283.2 533.5L-294.5 512.8L-304.9 504.4L-304.3 479.9L-315.6 463.3L-314.7 455.9L-301.4 446.7L-280.3 422L-267.8 414.4L-294.6 388.2L-299.5 389.8L-311.9 379.2L-309.6 369.9L-294.3 353.2L-296.3 345.3L-276.3 309.3L-271.3 289.5L-257.7 279.2L-227.7 307.2L-191.2 261L-177.8 237.2L-175.2 220.7L-162.4 210.5L-160.8 198.2L-153.5 188.9L-91.3 210.3L-81.8 223.9L-90.3 245.6L-80.9 264.6L-76.5 260.6L-67 268.3L-51.5 268.1L-47.3 252.5L-33.6 240.7L-17.6 249L3.3 244.3L22.8 252.2L35.2 243.5L44.9 253.9L53.1 254.4L47.9 272.9L51.9 292.1L72 295.9L90.6 289.8L107.9 296.2L116.1 270.8L135 254.1L153 254.6L161.1 233.7L161.8 223L138 189L139 174.2L120.4 168.4L110.9 146.4L95.5 146L69.7 128.8L80.5 106.3L79.3 86L68.9 62.1L81.4 54.2L82.4 42.8L71.9 17L61.7 19.1L43.4 15.3L37 -3.3L25.9 -13.1L26.8 -29.1L46.9 -15L74.5 -26.4L62.2 -49.7L72.5 -58.9L69.6 -71.3L61.8 -68.4L52.9 -84.1L53.4 -96.3L44.6 -105.4L47.8 -123.8L43 -136.1L53.3 -143.7L81.1 -152.1L88.5 -162.3L83.7 -174.4L88.3 -184.9L85.6 -214.7L91.6 -232.1L85.2 -242.8L87.2 -261.1L82.6 -276.6L74.5 -283.5L60.9 -282.7L49.5 -289.8L34.4 -290.5L4.3 -284L-8 -268.2L-17.7 -268.4L-38.1 -280.9L-49.5 -279.2L-52.2 -266.1L-77.2 -270.2L-79.4 -286.5L-127 -301.3L-125.4 -320.7L-130.7 -361.4L-123.1 -379.3L-124.6 -394.9L-116.3 -406.2L-118.5 -413.4L-103.6 -431.3L-103.9 -444.6L-110.8 -449.9L-103.6 -475.7L-92.8 -477.9L-92.7 -489.3L-81.2 -492.7L-77.7 -515L-65.7 -524.8L-51.2 -521.8L-21.4 -532.1L-13.4 -548.5L-27.4 -560L-30.6 -574L-5.4 -588.6L21.3 -592.1L28.4 -585.9L37.9 -599.2L52.3 -591.5L61.4 -606L124.7 -625.6Z"/><path d="M313.2 789.8L276.5 809.6L267.4 800.8L257.2 800.5L232 817.5L213.2 814.9L154.5 829.5L149.4 826.9L111.6 834.8L103.6 798L96.9 792.3L50.6 797.6L40.4 756L27.4 742.7L7.6 754.6L2.5 766.3L-15.5 780.6L-12.1 801.1L-16.5 815.5L-16.6 847.5L-12.7 863.3L-32.4 881.1L-24.2 912.6L-30.6 934.9L-25.1 942L-15.1 975.5L-19.3 982.4L-14.6 992.2L-18.4 1002.6L-29.5 1001.8L-32.2 1011.5L-50 1033.1L-61.6 1022.9L-104.7 1018.1L-112.5 1000.7L-129.3 999.7L-136.2 979.2L-140.1 951.6L-156.4 926.5L-156.6 905.4L-151.8 895.9L-164.3 876.5L-171 879.3L-183.5 867.5L-191.6 866.4L-216.7 878L-226.3 890.8L-239.5 880.2L-249.7 878L-257.5 862.2L-250.5 854.9L-255.4 828.7L-271.8 820.6L-259.5 790.7L-249.5 782.7L-248.4 757.8L-251.9 743.7L-261.3 733.7L-259.6 723.8L-249.7 710.7L-247.7 679.3L-240.2 670.7L-250.2 653.1L-248.4 629.8L-261.2 618.8L-265.5 594.5L-261.9 589.3L-268.7 574L-268.4 557L-275 551.8L-271.6 538.2L-283.2 533.5L-296.3 546.5L-294 571.6L-312.5 608.7L-322.4 599.7L-331.6 600.1L-340.4 610.9L-345.3 625.6L-333.9 638.3L-352 662.2L-345.1 665.9L-350.3 685.8L-329.4 691.9L-334.8 699.9L-336 727.5L-349.6 728.6L-357.7 734.5L-365.9 731.3L-366.3 760.5L-350.6 766.7L-354.9 782.3L-339.3 793.4L-349.5 822.5L-371.7 827.3L-390 842.9L-387.8 853.4L-396 855.8L-410 845.6L-422.6 849.1L-426.9 858.1L-438.2 861.2L-436.8 868L-447.9 874.1L-446.5 883.1L-454 894.2L-465.3 890.7L-476.9 893.5L-485.3 903.3L-492.9 902.6L-498.8 913.4L-511.3 913L-517.8 920.1L-530.7 921L-539.7 943.1L-559.6 939.3L-570.6 949.7L-568.6 962.1L-579.1 980.2L-590.5 975.6L-602.7 978L-608.6 987L-622.6 996.7L-629.3 1014.4L-638.4 1017.7L-632.2 1026.4L-619.4 1033.3L-622.9 1043.5L-616.4 1050.3L-627.3 1049.6L-628.4 1062.3L-636.1 1072L-647 1067.8L-642.3 1077.2L-640 1097.7L-647.2 1109.2L-659.7 1105L-663.9 1114.5L-661.9 1127.6L-692.2 1150L-702.1 1166.9L-711 1171.3L-725.7 1205.3L-719.9 1215.4L-726.7 1224.8L-720.4 1238L-728.9 1238.3L-747.6 1266.1L-761.2 1266.9L-768.5 1278.6L-766.9 1286.8L-776.9 1320.6L-798.2 1339.1L-814.2 1342L-816.2 1356L-823.2 1365.4L-853.5 1363.5L-861.5 1373.7L-868 1371.6L-897.6 1385L-896.2 1393.2L-908.7 1405.3L-902.4 1415.7L-903.6 1431.2L-917.5 1443.8L-919.7 1469.7L-914.2 1479.4L-912.5 1500.9L-904.6 1519.1L-910.7 1538.4L-910.5 1548.5L-836.5 1542.2L-761 1550.5L-706.8 1560L-660.4 1576.1L-631.6 1576.3L-595.4 1564.8L-537.4 1555L-484.4 1559.2L-396.7 1583.6L-306.1 1624.8L-275.9 1630.6L-270.2 1620.1L-284.4 1615.4L-301.3 1591.6L-305.1 1579.3L-303.1 1558.4L-291 1535.4L-286.8 1511.7L-279 1498.3L-260.2 1479.3L-223 1456.6L-210.1 1441.2L-212.8 1439.2L-181.7 1387.4L-182.1 1374.4L-189.7 1359.2L-190.2 1347.5L-164.6 1297.7L-132.3 1283.5L-118.8 1270.8L-68.6 1251.1L-36.3 1232.4L-20 1214.3L-14.1 1195.5L-29.3 1187.2L-29.6 1195.8L-40.6 1197L-41.5 1207.4L-33.2 1218.8L-39.5 1223.9L-44.9 1213L-46.4 1191.5L-42.9 1171.7L-35.5 1174.1L-25.8 1160.1L-13.3 1150.5L7.8 1102.6L24.5 1092.3L70.3 1088.7L111.2 1071.2L126.5 1068.6L115.3 1058.4L128.7 1059.7L127.3 1066.7L161.1 1068.8L220.6 1087.7L252.4 1110.3L265.4 1132L278.8 1140.1L287.3 1160.8L292.1 1155.1L303.4 1160.9L292.5 1175.5L297.9 1182.9L292.1 1191.2L284.8 1182.7L251.6 1194L238.5 1184.4L223.6 1188.9L199.6 1183L187.1 1227.9L192.4 1240.8L183.2 1237.9L186.4 1262.1L191.7 1267.1L194.8 1284.7L201.3 1292.6L204.4 1307L190.9 1318.5L186.5 1316.7L176.6 1328.5L177.5 1352.5L191.5 1357.9L192.1 1366.2L180.5 1371.9L185.8 1385.7L172 1396L182.3 1404L180.6 1415.8L174.6 1414.6L180.4 1431.3L186.6 1436.6L193.3 1464L180.1 1470.2L175 1487.7L171 1484.3L164.7 1497L162.2 1515.5L164.4 1534.7L176.1 1530.2L194.5 1547.3L194.7 1555.8L204.9 1553.3L206.9 1559.8L191.2 1568.1L192.5 1581.8L208.6 1590.1L207.8 1601.4L221 1596.1L226.9 1610.1L233.5 1608.8L235.5 1619.1L253.1 1622.9L255.2 1612.5L265.2 1612.5L269.6 1605.1L288.2 1600.8L292.8 1589L303.2 1595.2L310.2 1588.8L314.9 1570.8L329.7 1556.3L340.5 1556.7L349.6 1545.9L347.1 1568.6L366.2 1569.7L373.1 1565.4L362.4 1545.5L362 1534.8L367.4 1511.7L385 1484.1L388.6 1468.1L404.4 1462.1L410.6 1450.8L425.9 1450.7L420.3 1444.8L434.4 1433.4L437.5 1418L451.7 1397.2L450.4 1374.2L459.1 1356.8L468.7 1357.2L472 1345.3L484.3 1343.4L497.6 1334.5L504.3 1319.4L498.1 1318.1L511.7 1275.7L508.6 1254.9L499.8 1259.8L494.3 1241.3L481.3 1236.8L475.1 1240.5L464.8 1231.8L465.2 1220.9L455.6 1208.6L466.7 1201.7L470.5 1163.5L465.1 1157.1L458.3 1162.2L444 1153.3L452.8 1136.6L448.1 1126.7L454.7 1119.5L450.6 1106.5L478.1 1072.8L480.1 1061.3L461.7 1062.6L426.2 1052.7L410.7 1052.6L409.6 1031.1L403.2 1018.9L393.8 1018.2L374.2 999.1L374.3 986.8L362.9 949.9L363.7 933.3L372.7 918L387.3 906.4L400.9 864.6L393.9 855.3L389.7 816.3L383.5 807.2L386.2 791.6L379.2 786.8L313.2 789.8ZM-289.4 1595.4L-289.7 1605.3L-280.5 1602.2L-289.4 1595.4Z"/></g></svg>